<svg width="80" height="59" viewBox="0 0 80 59" fill="none" xmlns="http://www.w3.org/2000/svg">
<path d="M75.585 5.68112H74.2329C67.3069 -3.85832 49.7537 0.407007 40.0735 5.49304C30.4118 0.412268 12.8244 -3.85963 5.91413 5.68112C3.3402 5.31943 0.584775 6.77014 0.616341 9.62684C3.70452 60.4517 -13.6435 58.0895 34.5206 56.9755C36.8446 59.0364 43.3011 59.0378 45.6252 56.9755C49.1461 55.5787 80.5842 60.6976 79.532 53.0311C77.9406 49.9126 83.5869 3.81479 75.585 5.68243V5.68112ZM33.4973 54.345C32.7687 53.7045 1.94868 55.8759 3.24682 53.0298C4.51734 51.9381 0.202041 4.79596 5.8773 8.3116C6.94133 11.1131 3.16396 47.8201 8.50778 47.7083C7.77782 55.2236 29.9699 50.44 33.4973 51.7145V54.345ZM11.1383 47.7491C18.846 45.5156 27.086 45.9866 34.489 49.084C33.6788 48.4948 9.96112 50.5413 11.1383 47.7491ZM10.2676 45.2619C6.38104 47.9135 9.41398 6.59784 8.50778 6.1625C16.3703 0.133437 29.837 2.96646 38.7583 7.75525V48.1647C30.0025 43.5214 19.7799 42.4799 10.2676 45.2619ZM42.704 55.6629C39.2712 55.4393 35.0954 57.1057 36.1278 51.7171H44.0193C43.8983 52.8312 44.5927 55.7063 42.704 55.6629ZM41.3888 48.166V7.75394C45.7983 5.17383 50.7173 3.586 55.8031 3.10104C60.8889 2.61608 66.0193 3.24565 70.837 4.9459C72.8283 69.5991 77.1935 32.195 41.3888 48.166ZM69.0088 47.7491C70.2675 50.5269 46.3604 48.5027 45.6567 49.084C53.0597 45.9846 61.3008 45.5134 69.0088 47.7491ZM76.9002 53.0298C78.3115 55.8628 47.2376 53.7137 46.6497 54.345V51.7145C50.2614 50.4348 72.3048 55.2301 71.6393 47.7083C76.9594 47.9569 73.2215 10.9381 74.2698 8.3116C79.92 4.5921 75.6468 52.2235 76.9002 53.0298Z" fill="#B8B8B8"/>
<path d="M55.8972 12.8426C58.0108 11.7957 70.8554 16.3951 66.3231 11.3616C59.9652 9.88331 51.8291 9.55845 46.1762 13.1793C45.2595 16.4503 53.9006 12.1297 55.8959 12.8426H55.8972ZM56.7468 20.6091C59.2405 20.6315 62.0841 20.5275 64.3621 21.5311C65.2827 22.6451 67.0307 21.439 66.69 20.1764C62.6575 13.0504 32.1045 24.3694 56.7468 20.6091ZM52.2079 29.1213C56.4167 28.736 61.4422 28.4229 65.0486 30.9324C65.1601 31.041 65.2978 31.1189 65.4483 31.1585C65.5988 31.198 65.757 31.198 65.9074 31.1582C66.0579 31.1185 66.1955 31.0405 66.3068 30.9317C66.4182 30.823 66.4994 30.6873 66.5427 30.5378C65.6194 25.0059 56.0379 26.4317 51.7752 26.8486C47.2653 27.8837 46.5248 31.5085 52.2079 29.1213ZM64.9763 37.4271C71.1974 33.1801 51.7397 32.9263 50.268 35.6318C48.2306 38.182 62.3511 35.8277 64.9763 37.4271ZM25.21 12.9689C27.8892 12.6966 30.9011 17.0566 32.9265 15.1561C33.4184 11.4971 27.3446 10.6383 24.605 10.3187C23.0925 9.83465 12.0392 11.9851 15.1274 13.6909C18.3721 13.0675 21.9153 12.3612 25.21 12.9675V12.9689ZM30.709 19.5871C28.6993 18.0746 13.5609 16.9225 16.6833 20.9655C22.0705 19.6253 28.2469 19.8765 32.7713 23.283C35.4281 22.7542 31.9888 19.8476 30.709 19.5871ZM23.4515 28.2033C26.1938 27.7245 31.0931 31.2231 32.8147 29.1503C31.3522 24.5206 19.9043 25.2111 16.3006 27.6312C14.5487 30.1801 22.0166 27.2287 23.4515 28.2033ZM31.1089 35.1307C29.3688 33.2157 15.1576 32.7382 17.7789 36.0618C22.0205 35.447 26.3495 36.0245 30.2816 37.7296C33.5868 39.6748 34.3772 36.1145 31.1089 35.1307Z" fill="#B8B8B8"/>
</svg>
