<svg width="28" height="28" viewBox="0 0 28 28" fill="none" xmlns="http://www.w3.org/2000/svg">
<g clip-path="url(#clip0_529_2656)">
<path d="M14.2032 0.245605C14.9104 0.245605 15.5887 0.526556 16.0888 1.02665C16.5889 1.52675 16.8699 2.20502 16.8699 2.91227C16.8699 3.61951 16.5889 4.29778 16.0888 4.79788C15.5887 5.29798 14.9104 5.57893 14.2032 5.57893C13.496 5.57893 12.8177 5.29798 12.3176 4.79788C11.8175 4.29778 11.5365 3.61951 11.5365 2.91227C11.5365 2.20502 11.8175 1.52675 12.3176 1.02665C12.8177 0.526556 13.496 0.245605 14.2032 0.245605ZM16.3365 6.64559H12.0699C10.3056 6.64559 8.86987 8.08132 8.86987 9.84558C8.86987 11.0238 9.825 11.9789 11.0032 11.9789H17.4032C18.5814 11.9789 19.5365 11.0238 19.5365 9.84558C19.5365 8.08132 18.1008 6.64559 16.3365 6.64559Z" fill="#707070"/>
<path d="M5.60676 16.0209C6.314 16.0209 6.99228 16.3018 7.49237 16.8019C7.99247 17.302 8.27342 17.9803 8.27342 18.6875C8.27342 19.3948 7.99247 20.0731 7.49237 20.5731C6.99228 21.0732 6.314 21.3542 5.60676 21.3542C4.89952 21.3542 4.22124 21.0732 3.72114 20.5731C3.22105 20.0731 2.9401 19.3948 2.9401 18.6875C2.9401 17.9803 3.22105 17.302 3.72114 16.8019C4.22124 16.3018 4.89952 16.0209 5.60676 16.0209ZM7.74009 22.4209H3.47343C1.70917 22.4209 0.273438 23.8566 0.273438 25.6209C0.273438 26.7991 1.22856 27.7542 2.40677 27.7542H8.80675C9.98495 27.7542 10.9401 26.7991 10.9401 25.6209C10.9401 23.8566 9.50435 22.4209 7.74009 22.4209Z" fill="#707070"/>
<path d="M21.94 16.0209C22.6473 16.0209 23.3255 16.3018 23.8256 16.8019C24.3257 17.302 24.6067 17.9803 24.6067 18.6875C24.6067 19.3948 24.3257 20.0731 23.8256 20.5731C23.3255 21.0732 22.6473 21.3542 21.94 21.3542C21.2328 21.3542 20.5545 21.0732 20.0544 20.5731C19.5543 20.0731 19.2733 19.3948 19.2733 18.6875C19.2733 17.9803 19.5543 17.302 20.0544 16.8019C20.5545 16.3018 21.2328 16.0209 21.94 16.0209ZM24.0733 22.4209H19.8067C18.0424 22.4209 16.6067 23.8566 16.6067 25.6209C16.6067 26.7991 17.5618 27.7542 18.74 27.7542H25.14C26.3182 27.7542 27.2733 26.7991 27.2733 25.6209C27.2733 23.8566 25.8376 22.4209 24.0733 22.4209Z" fill="#707070"/>
<path d="M7.31346 10.2189C6.34144 10.2189 5.55347 11.0068 5.55347 11.9789V14.3255" stroke="#707070" stroke-width="1.08797" stroke-linecap="round"/>
<path d="M20.7334 10.0375C21.7054 10.0375 22.4934 10.8255 22.4934 11.7975V14.1441" stroke="#707070" stroke-width="1.08797" stroke-linecap="round"/>
</g>
<defs>
<clipPath id="clip0_529_2656">
<rect width="28" height="28" fill="white"/>
</clipPath>
</defs>
</svg>
