<svg width="28" height="28" viewBox="0 0 28 28" fill="none" xmlns="http://www.w3.org/2000/svg">
<path d="M13.999 9.9177C14.6757 9.9177 15.3248 10.1866 15.8034 10.6651C16.282 11.1437 16.5508 11.7928 16.5508 12.4696C16.5508 13.1464 16.282 13.7954 15.8034 14.274C15.3248 14.7526 14.6757 15.0214 13.999 15.0214C13.3222 15.0214 12.6731 14.7526 12.1945 14.274C11.7159 13.7954 11.4471 13.1464 11.4471 12.4696C11.4471 11.7928 11.7159 11.1437 12.1945 10.6651C12.6731 10.1866 13.3222 9.9177 13.999 9.9177ZM1.75 23.1874V26.2496H6.85373V20.1252H4.81224C4.00008 20.1252 3.22119 20.4478 2.64691 21.0221C2.07263 21.5963 1.75 22.3752 1.75 23.1874ZM13.3283 4.02493C13.5195 3.8746 13.7557 3.79287 13.999 3.79287C14.2422 3.79287 14.4784 3.8746 14.6696 4.02493L24.9669 12.0837L26.2244 10.476L15.9282 2.41624C15.378 1.98437 14.6989 1.74963 13.9995 1.74963C13.3001 1.74963 12.6209 1.98437 12.0708 2.41624L1.77246 10.475L3.03002 12.0827L13.3283 4.02493ZM24.2064 15.5318C24.2064 14.855 23.9376 14.2059 23.459 13.7274C22.9804 13.2488 22.3313 12.9799 21.6545 12.9799C20.9778 12.9799 20.3287 13.2488 19.8501 13.7274C19.3715 14.2059 19.1027 14.855 19.1027 15.5318C19.1027 16.2086 19.3715 16.8577 19.8501 17.3362C20.3287 17.8148 20.9778 18.0837 21.6545 18.0837C22.3313 18.0837 22.9804 17.8148 23.459 17.3362C23.9376 16.8577 24.2064 16.2086 24.2064 15.5318ZM23.1857 20.1252H21.1442V26.2496H26.2479V23.1874C26.2479 22.3752 25.9253 21.5963 25.351 21.0221C24.7767 20.4478 23.9978 20.1252 23.1857 20.1252ZM16.0404 17.0629H11.9575C10.2691 17.0629 8.89522 18.4368 8.89522 20.1252V26.2496H19.1027V20.1252C19.1027 18.4368 17.7288 17.0629 16.0404 17.0629ZM6.34336 12.9799C5.66656 12.9799 5.01748 13.2488 4.53892 13.7274C4.06035 14.2059 3.79149 14.855 3.79149 15.5318C3.79149 16.2086 4.06035 16.8577 4.53892 17.3362C5.01748 17.8148 5.66656 18.0837 6.34336 18.0837C7.02015 18.0837 7.66923 17.8148 8.1478 17.3362C8.62637 16.8577 8.89522 16.2086 8.89522 15.5318C8.89522 14.855 8.62637 14.2059 8.1478 13.7274C7.66923 13.2488 7.02015 12.9799 6.34336 12.9799Z" fill="#707070"/>
</svg>
