<svg width="28" height="28" viewBox="0 0 28 28" fill="none" xmlns="http://www.w3.org/2000/svg">
<path d="M16.0417 16.0417C16.0417 15.4779 16.4987 15.0208 17.0625 15.0208C17.6263 15.0208 18.0833 15.4779 18.0833 16.0417C18.0833 16.6055 17.6263 17.0625 17.0625 17.0625C16.4987 17.0625 16.0417 16.6055 16.0417 16.0417ZM20.125 16.0417C20.125 16.6055 20.582 17.0625 21.1458 17.0625C21.7096 17.0625 22.1667 16.6055 22.1667 16.0417C22.1667 15.4779 21.7096 15.0208 21.1458 15.0208C20.582 15.0208 20.125 15.4779 20.125 16.0417ZM16.0417 20.125C16.0417 20.6888 16.4987 21.1458 17.0625 21.1458C17.6263 21.1458 18.0833 20.6888 18.0833 20.125C18.0833 19.5612 17.6263 19.1042 17.0625 19.1042C16.4987 19.1042 16.0417 19.5612 16.0417 20.125ZM20.125 20.125C20.125 20.6888 20.582 21.1458 21.1458 21.1458C21.7096 21.1458 22.1667 20.6888 22.1667 20.125C22.1667 19.5612 21.7096 19.1042 21.1458 19.1042C20.582 19.1042 20.125 19.5612 20.125 20.125ZM16.0417 7.875C16.0417 8.43879 16.4987 8.89583 17.0625 8.89583C17.6263 8.89583 18.0833 8.43879 18.0833 7.875C18.0833 7.31121 17.6263 6.85417 17.0625 6.85417C16.4987 6.85417 16.0417 7.31121 16.0417 7.875ZM20.125 7.875C20.125 8.43879 20.582 8.89583 21.1458 8.89583C21.7096 8.89583 22.1667 8.43879 22.1667 7.875C22.1667 7.31121 21.7096 6.85417 21.1458 6.85417C20.582 6.85417 20.125 7.31121 20.125 7.875ZM16.0417 11.9583C16.0417 12.5221 16.4987 12.9792 17.0625 12.9792C17.6263 12.9792 18.0833 12.5221 18.0833 11.9583C18.0833 11.3945 17.6263 10.9375 17.0625 10.9375C16.4987 10.9375 16.0417 11.3945 16.0417 11.9583ZM20.125 11.9583C20.125 12.5221 20.582 12.9792 21.1458 12.9792C21.7096 12.9792 22.1667 12.5221 22.1667 11.9583C22.1667 11.3945 21.7096 10.9375 21.1458 10.9375C20.582 10.9375 20.125 11.3945 20.125 11.9583ZM26.25 4.8125V26.25H1.75V10.7629C1.75 9.94525 2.0685 9.17554 2.64731 8.59673L5.41071 5.83333C6.72656 4.51646 9.02344 4.51646 10.3393 5.83333L11.9583 7.45238V4.8125C11.9583 3.12404 13.3324 1.75 15.0208 1.75H23.1875C24.876 1.75 26.25 3.12404 26.25 4.8125ZM11.9583 10.7629C11.9587 10.6287 11.9324 10.4957 11.8811 10.3716C11.8297 10.2476 11.7543 10.1349 11.6592 10.0402L8.89583 7.27679C8.35888 6.73983 7.39113 6.73983 6.85417 7.27679L4.09077 10.0402C3.99558 10.1349 3.92012 10.2475 3.86878 10.3716C3.81744 10.4956 3.79122 10.6287 3.79167 10.7629V24.2083H11.9583V10.7629ZM24.2083 4.8125C24.2083 4.25002 23.75 3.79167 23.1875 3.79167H15.0208C14.4584 3.79167 14 4.25002 14 4.8125V24.2083H24.2083V4.8125ZM6.85417 16.0417C6.85417 16.6055 7.31121 17.0625 7.875 17.0625C8.43879 17.0625 8.89583 16.6055 8.89583 16.0417C8.89583 15.4779 8.43879 15.0208 7.875 15.0208C7.31121 15.0208 6.85417 15.4779 6.85417 16.0417ZM6.85417 11.9583C6.85417 12.5221 7.31121 12.9792 7.875 12.9792C8.43879 12.9792 8.89583 12.5221 8.89583 11.9583C8.89583 11.3945 8.43879 10.9375 7.875 10.9375C7.31121 10.9375 6.85417 11.3945 6.85417 11.9583ZM6.85417 20.125C6.85417 20.6888 7.31121 21.1458 7.875 21.1458C8.43879 21.1458 8.89583 20.6888 8.89583 20.125C8.89583 19.5612 8.43879 19.1042 7.875 19.1042C7.31121 19.1042 6.85417 19.5612 6.85417 20.125Z" fill="#707070"/>
</svg>
