<svg width="58" height="64" viewBox="0 0 58 64" fill="none" xmlns="http://www.w3.org/2000/svg">
<path d="M55.5102 11.3633C51.3306 13.7143 47.2816 16.0653 43.102 18.4163C42.7102 18.6775 42.449 19.0694 42.449 19.4612L42.7102 41.4041C42.8408 48.7184 43.102 56.1633 43.3633 63.4775C43.3633 63.6082 43.4939 63.7388 43.6245 63.7388C45.5837 63.7388 47.5429 63.6082 49.502 63.4775C47.6735 63.3469 45.7143 63.2163 43.8857 63.2163C44.1469 55.902 44.4082 48.7184 44.5388 41.4041L44.8 20.1143L54.5959 14.6286C54.5959 22.4653 54.7265 30.1714 54.8571 38.0082L55.1184 50.8082L55.5102 63.3469C53.4204 63.4776 51.4612 63.4776 49.3714 63.6082C51.5918 63.7388 53.6816 63.8694 55.902 63.8694C56.0326 63.8694 56.1633 63.7388 56.1633 63.6082C56.2939 59.298 56.5551 55.1184 56.5551 50.8082L56.8163 38.0082C56.9469 29.5184 57.0776 21.0286 57.0776 12.4082C57.0776 12.1469 57.0775 12.0163 56.9469 11.7551C56.9469 11.2327 56.1633 10.9714 55.5102 11.3633ZM34.2204 25.2082C30.0408 27.5592 25.9918 29.9102 21.8122 32.2612C21.4204 32.5224 21.1592 32.9143 21.1592 33.3061C21.2898 44.4082 21.4204 52.3755 22.0735 63.4775C22.0735 63.6082 22.2041 63.7388 22.3347 63.7388C24.1633 63.6082 25.9918 63.4775 27.8204 63.4775C26.1224 63.3469 24.4245 63.2163 22.7265 63.2163C23.249 52.5061 23.5102 44.8 23.6408 34.0898C26.9061 32.2612 30.302 30.4327 33.5673 28.6041C33.5673 34.0898 33.698 39.5755 33.8286 45.0612C33.9592 48.1959 33.9592 51.2 34.0898 54.3347C34.2204 57.3388 34.351 60.3429 34.4816 63.2163C32.2612 63.3469 30.1714 63.4776 27.951 63.6082C30.302 63.7388 32.5224 63.8694 34.8735 64C35.1347 64 35.2653 63.8694 35.2653 63.6082C35.3959 60.4735 35.5265 57.4694 35.6571 54.3347C35.7878 51.2 35.7878 48.1959 35.9184 45.0612C36.049 38.9224 36.1796 32.6531 36.1796 26.5143C36.1796 26.2531 36.1796 26.1224 36.049 25.8612C35.6571 25.2082 34.8735 24.9469 34.2204 25.2082ZM12.9306 39.1837C12.0163 39.7061 10.0571 40.751 6.66122 42.7102C2.22041 45.1918 0.783674 46.1061 0.522449 46.3673C0.130612 46.6286 0 46.8898 0 47.4122C0 50.1551 0.130612 52.898 0.261224 55.5102C0.261224 56.8163 0.391837 58.2531 0.391837 59.5592C0.522449 60.9959 0.653061 62.302 0.653061 63.6082C0.653061 63.8694 0.914286 64 1.17551 64C3.26531 63.8694 5.3551 63.7388 7.31429 63.4775C5.48571 63.3469 3.52653 63.0857 1.69796 62.9551C1.82857 61.7796 1.82857 60.6041 1.95918 59.298C1.95918 57.9918 2.0898 56.5551 2.0898 55.249C2.22041 52.7673 2.22041 50.2857 2.35102 47.8041C4.3102 46.7592 6.13878 45.7143 7.96735 44.6694C9.40408 43.8857 10.8408 43.102 12.2776 42.1878C12.4082 50.2857 12.6694 57.4694 13.0612 62.8245C11.2327 62.9551 9.27347 63.0857 7.4449 63.3469C9.53469 63.6082 11.6245 63.7388 13.5837 63.8694C13.8449 63.8694 14.1061 63.7388 14.1061 63.4775C14.1061 62.8245 14.3673 59.951 14.6286 51.7224C14.7592 47.8041 14.8898 44.0163 14.8898 40.098C14.8898 39.8367 14.8898 39.7061 14.7592 39.4449C14.3673 39.0531 13.5837 38.7918 12.9306 39.1837ZM47.6735 3.26531C47.2816 4.17959 47.0204 4.96327 46.6286 5.87755L45.8449 8.62041C45.5837 9.53469 45.3224 10.449 45.1918 11.4939C45.8449 10.7102 46.3673 10.0571 47.0204 9.27347L48.5878 6.92245C49.1102 6.13878 49.502 5.3551 50.0245 4.44082C50.4163 3.65714 50.8082 2.74286 51.3306 1.95918C51.4612 1.82857 51.4612 1.56735 51.4612 1.43673C51.4612 0.783673 50.9388 0.130612 50.1551 0.130612H47.4122C46.3673 -1.20882e-07 45.4531 0 44.5388 0C42.7102 0.130612 40.8816 0.391837 39.0531 0.783673C40.8816 1.43673 42.7102 1.69796 44.5388 1.95918C45.4531 2.0898 46.3673 2.22041 47.2816 2.22041H47.4122C43.8857 3.91837 40.4898 5.74694 37.0939 7.70612C32.9143 10.0571 28.8653 12.4082 24.8163 14.8898C20.7673 17.3714 16.7184 19.9837 12.8 22.5959C8.88163 25.2082 4.96327 27.951 1.17551 30.9551C5.48571 28.8653 9.66531 26.6449 13.8449 24.2939C18.0245 21.9429 22.0735 19.5918 26.1224 17.1102C30.1714 14.6286 34.2204 12.0163 38.1388 9.40408C41.5347 7.18367 44.8 4.83265 48.0653 2.35102C47.9347 2.74286 47.8041 3.00408 47.6735 3.26531Z" fill="#B8B8B8"/>
</svg>
