<svg width="28" height="28" viewBox="0 0 28 28" fill="none" xmlns="http://www.w3.org/2000/svg">
<path d="M8.75 12.9847C8.75 15.8005 11.0397 18.0914 13.8542 18.0914C16.6686 18.0914 18.9583 15.8005 18.9583 12.9847C18.9583 12.7138 19.0659 12.454 19.2573 12.2625C19.4488 12.071 19.7084 11.9634 19.9792 11.9634C20.2499 11.9634 20.5096 12.071 20.701 12.2625C20.8925 12.454 21 12.7138 21 12.9847C21 16.9271 17.7946 20.134 13.8542 20.134C9.91375 20.134 6.70833 16.9271 6.70833 12.9847C6.70833 9.04234 9.91375 5.83534 13.8542 5.83534C14.1249 5.83534 14.3846 5.94295 14.576 6.13449C14.7674 6.32602 14.875 6.5858 14.875 6.85668C14.875 7.12756 14.7674 7.38734 14.576 7.57887C14.3846 7.77041 14.1249 7.87802 13.8542 7.87802C11.0397 7.87802 8.75 10.1689 8.75 12.9847ZM13.8542 14.006C13.6523 14.006 13.455 13.9461 13.2871 13.8338C13.1193 13.7216 12.9885 13.5621 12.9112 13.3755C12.834 13.1889 12.8138 12.9836 12.8532 12.7855C12.8925 12.5874 12.9897 12.4054 13.1324 12.2626L15.1557 10.2383C14.0206 9.72663 12.5934 9.91252 11.688 10.8184C11.1102 11.3965 10.7917 12.1666 10.7917 12.9847C10.7917 13.8028 11.1102 14.5729 11.688 15.1509C12.2658 15.729 13.0355 16.0487 13.8542 16.0487C14.6729 16.0487 15.4416 15.73 16.0194 15.152C16.5971 14.5739 16.9167 13.8038 16.9167 12.9847C16.9167 12.521 16.8044 12.0777 16.6104 11.6713L14.5769 13.7058C14.4822 13.8007 14.3698 13.8761 14.2459 13.9274C14.122 13.9788 13.9893 14.0051 13.8552 14.005L13.8542 14.006ZM15.1557 10.2383C15.4712 10.3803 15.7682 10.5662 16.0194 10.8174C16.2705 11.0687 16.4614 11.3597 16.6094 11.6702L18.3591 9.91967H20.999C21.2695 9.91967 21.5298 9.81243 21.7207 9.62041L23.7624 7.57774C23.9051 7.43491 24.0023 7.25294 24.0417 7.05485C24.081 6.85676 24.0608 6.65144 23.9836 6.46484C23.9063 6.27824 23.7755 6.11875 23.6077 6.00652C23.4398 5.89429 23.2425 5.83437 23.0406 5.83432H20.999V3.79267C20.998 3.59114 20.9375 3.39438 20.8252 3.22709C20.7128 3.0598 20.5536 2.92942 20.3675 2.8523C20.1814 2.77518 19.9767 2.75476 19.779 2.79359C19.5814 2.83242 19.3996 2.92878 19.2564 3.07059L17.2148 5.11326C17.0233 5.30475 16.9157 5.56449 16.9156 5.83534V8.47652L15.1557 10.2383ZM21.3011 21.3699C23.6154 19.3109 25.0833 16.3194 25.0833 12.9847C25.0833 12.6058 25.065 12.232 25.0282 11.8622C25.0149 11.7288 24.9755 11.5993 24.9122 11.4811C24.8489 11.3628 24.763 11.2583 24.6592 11.1733C24.5555 11.0883 24.4361 11.0246 24.3078 10.9858C24.1795 10.947 24.0448 10.9339 23.9114 10.9471C23.778 10.9604 23.6486 10.9998 23.5304 11.0632C23.4123 11.1265 23.3077 11.2125 23.2228 11.3163C23.1379 11.42 23.0742 11.5395 23.0354 11.6679C22.9966 11.7963 22.9835 11.931 22.9968 12.0645C23.0264 12.3668 23.0417 12.6742 23.0417 12.9847C23.0417 18.0526 18.9195 22.1767 13.8542 22.1767C8.78879 22.1767 4.66667 18.0526 4.66667 12.9847C4.66667 7.91683 8.78879 3.79267 13.8542 3.79267C14.1645 3.79267 14.4708 3.80799 14.7739 3.83761C14.9083 3.85278 15.0443 3.8411 15.1741 3.80324C15.3039 3.76539 15.4248 3.70213 15.53 3.61712C15.6352 3.53211 15.7224 3.42705 15.7866 3.30803C15.8509 3.18902 15.8908 3.05843 15.9042 2.92384C15.9176 2.78924 15.9041 2.65333 15.8646 2.52399C15.8251 2.39465 15.7602 2.27445 15.6739 2.17038C15.5875 2.0663 15.4814 1.98043 15.3616 1.91773C15.2418 1.85503 15.1108 1.81677 14.9761 1.80515C14.6032 1.76824 14.2288 1.74983 13.8542 1.75C7.66281 1.75 2.625 6.79029 2.625 12.9847C2.625 16.3194 4.09296 19.3109 6.40719 21.3699L4.31346 24.6964C4.17364 24.9254 4.12957 25.2004 4.19077 25.4617C4.25198 25.723 4.41354 25.9497 4.64053 26.0928C4.86751 26.2359 5.14166 26.2838 5.40368 26.2262C5.66571 26.1686 5.89455 26.0102 6.04071 25.7851L8.05379 22.5863C9.7494 23.6158 11.7298 24.2194 13.8542 24.2194C15.9785 24.2194 17.9589 23.6158 19.6545 22.5863L21.6676 25.7851C21.8138 26.0102 22.0426 26.1686 22.3047 26.2262C22.5667 26.2838 22.8408 26.2359 23.0678 26.0928C23.2948 25.9497 23.4564 25.723 23.5176 25.4617C23.5788 25.2004 23.5347 24.9254 23.3949 24.6964L21.3011 21.3699Z" fill="#707070"/>
</svg>
