<svg width="32" height="32" viewBox="0 0 32 32" fill="none" xmlns="http://www.w3.org/2000/svg">
<path d="M16.1785 2C16.8984 2 17.5888 2.28597 18.0978 2.79499C18.6069 3.30402 18.8928 3.9944 18.8928 4.71428C18.8928 5.43415 18.6069 6.12453 18.0978 6.63356C17.5888 7.14258 16.8984 7.42855 16.1785 7.42855C15.4587 7.42855 14.7683 7.14258 14.2593 6.63356C13.7502 6.12453 13.4643 5.43415 13.4643 4.71428C13.4643 3.9944 13.7502 3.30402 14.2593 2.79499C14.7683 2.28597 15.4587 2 16.1785 2ZM18.35 8.51426H14.0071C12.2114 8.51426 10.75 9.97563 10.75 11.7714C10.75 12.9706 11.7222 13.9428 12.9214 13.9428H19.4357C20.6349 13.9428 21.6071 12.9706 21.6071 11.7714C21.6071 9.97563 20.1457 8.51426 18.35 8.51426Z" fill="#707070"/>
<path d="M7.42855 18.0571C8.14842 18.0571 8.83881 18.3431 9.34783 18.8521C9.85686 19.3611 10.1428 20.0515 10.1428 20.7714C10.1428 21.4913 9.85686 22.1817 9.34783 22.6907C8.83881 23.1997 8.14842 23.4857 7.42855 23.4857C6.70868 23.4857 6.01829 23.1997 5.50927 22.6907C5.00024 22.1817 4.71427 21.4913 4.71427 20.7714C4.71427 20.0515 5.00024 19.3611 5.50927 18.8521C6.01829 18.3431 6.70868 18.0571 7.42855 18.0571ZM9.59997 24.5714H5.25713C3.46136 24.5714 2 26.0328 2 27.8285C2 29.0278 2.97218 29.9999 4.17142 29.9999H10.6857C11.8849 29.9999 12.8571 29.0278 12.8571 27.8285C12.8571 26.0328 11.3957 24.5714 9.59997 24.5714Z" fill="#707070"/>
<path d="M24.0535 18.0571C24.7734 18.0571 25.4638 18.3431 25.9728 18.8521C26.4819 19.3611 26.7678 20.0515 26.7678 20.7714C26.7678 21.4913 26.4819 22.1817 25.9728 22.6907C25.4638 23.1997 24.7734 23.4857 24.0535 23.4857C23.3337 23.4857 22.6433 23.1997 22.1343 22.6907C21.6252 22.1817 21.3393 21.4913 21.3393 20.7714C21.3393 20.0515 21.6252 19.3611 22.1343 18.8521C22.6433 18.3431 23.3337 18.0571 24.0535 18.0571ZM26.225 24.5714H21.8821C20.0864 24.5714 18.625 26.0328 18.625 27.8285C18.625 29.0278 19.5972 29.9999 20.7964 29.9999H27.3107C28.5099 29.9999 29.4821 29.0278 29.4821 27.8285C29.4821 26.0328 28.0207 24.5714 26.225 24.5714Z" fill="#707070"/>
<path d="M9.16593 12.1514C8.17656 12.1514 7.37451 12.9534 7.37451 13.9428V16.3314" stroke="#707070" stroke-width="1.1074" stroke-linecap="round"/>
<path d="M22.8248 11.9666C23.8142 11.9666 24.6162 12.7686 24.6162 13.758V16.1465" stroke="#707070" stroke-width="1.1074" stroke-linecap="round"/>
</svg>
