<svg width="32" height="32" viewBox="0 0 32 32" fill="none" xmlns="http://www.w3.org/2000/svg">
<path d="M24.4375 12.0156H12.0135V7.19746C12.0135 5.0725 13.8009 3.34375 15.9978 3.34375C18.1948 3.34375 19.9822 5.0725 19.9822 7.19746V9.4375H22.326V7.19746C22.326 3.78016 19.4871 1 15.9978 1C12.5085 1 9.66971 3.78016 9.66971 7.19746V12.0156H7.5625C5.62398 12.0156 4.04688 13.5927 4.04688 15.5312V27.4844C4.04688 29.4229 5.62398 31 7.5625 31H24.4375C26.376 31 27.9531 29.4229 27.9531 27.4844V15.5312C27.9531 13.5927 26.376 12.0156 24.4375 12.0156ZM25.6094 27.4844C25.6094 28.1305 25.0837 28.6562 24.4375 28.6562H7.5625C6.91633 28.6562 6.39062 28.1305 6.39062 27.4844V15.5312C6.39062 14.8851 6.91633 14.3594 7.5625 14.3594H24.4375C25.0837 14.3594 25.6094 14.8851 25.6094 15.5312V27.4844Z" fill="#707070"/>
<path d="M16 17.7578C14.8026 17.7578 13.832 18.7284 13.832 19.9258C13.832 20.6903 14.2281 21.3619 14.826 21.7479V24.3203C14.826 24.9675 15.3506 25.4922 15.9978 25.4922C16.645 25.4922 17.1697 24.9675 17.1697 24.3203V21.7507C17.7699 21.3651 18.168 20.6922 18.168 19.9258C18.168 18.7284 17.1974 17.7578 16 17.7578Z" fill="#707070"/>
</svg>
