<svg width="32" height="32" viewBox="0 0 32 32" fill="none" xmlns="http://www.w3.org/2000/svg">
<path d="M31.7874 13.4888L28.5974 7.10627C28.4799 6.87136 28.3173 6.66189 28.1188 6.48983C27.9203 6.31778 27.6899 6.1865 27.4407 6.10351C27.1915 6.02052 26.9284 5.98743 26.6664 6.00613C26.4043 6.02484 26.1486 6.09497 25.9137 6.21252L22.8049 7.76627L16.2562 6.03377C16.0882 5.99004 15.9117 5.99004 15.7437 6.03377L9.19495 7.76627L6.08619 6.21252C5.8513 6.09497 5.59554 6.02484 5.33354 6.00613C5.07153 5.98743 4.80841 6.02052 4.5592 6.10351C4.30998 6.1865 4.07956 6.31778 3.88108 6.48983C3.6826 6.66189 3.51996 6.87136 3.40245 7.10627L0.212445 13.4875C0.0948904 13.7224 0.0247582 13.9782 0.00605377 14.2402C-0.0126506 14.5022 0.0204391 14.7653 0.103433 15.0145C0.186428 15.2637 0.317701 15.4942 0.489756 15.6926C0.661811 15.8911 0.871278 16.0538 1.1062 16.1713L4.48119 17.86L11.4174 22.8138C11.5197 22.8864 11.6346 22.9394 11.7562 22.97L19.7562 24.97C19.9237 25.012 20.0993 25.0099 20.2658 24.9639C20.4323 24.9179 20.584 24.8296 20.7062 24.7075L27.5899 17.8225L30.8924 16.1713C31.3666 15.9339 31.727 15.5181 31.8946 15.015C32.0622 14.512 32.0232 13.963 31.7862 13.4888H31.7874ZM24.9262 17.66L20.6249 14.215C20.4323 14.0607 20.1893 13.9831 19.9428 13.9972C19.6964 14.0113 19.4638 14.116 19.2899 14.2913C17.0637 16.5338 14.5824 16.25 12.9999 15.25L18.4049 10H22.3812L25.7824 16.8013L24.9262 17.66ZM5.1912 8.00002L7.74995 9.27752L4.5537 15.6588L1.99995 14.3825L5.1912 8.00002ZM19.6912 22.8913L12.4274 21.0763L6.27745 16.6838L9.77745 9.68377L15.9999 8.03502L17.2249 8.35877L11.5999 13.8188L11.5899 13.83C11.3782 14.0418 11.2167 14.2984 11.1174 14.5808C11.0181 14.8633 10.9834 15.1645 11.0161 15.4622C11.0487 15.7599 11.1478 16.0464 11.3059 16.3007C11.4641 16.5549 11.6774 16.7704 11.9299 16.9313C14.4999 18.5725 17.6012 18.3063 20.0437 16.3063L23.4999 19.0825L19.6912 22.8913ZM27.4412 15.6575L24.2512 9.28252L26.8087 8.00002L29.9999 14.3825L27.4412 15.6575ZM16.4724 27.2413C16.4184 27.4574 16.2938 27.6493 16.1183 27.7865C15.9428 27.9238 15.7265 27.9985 15.5037 27.9988C15.4215 27.9988 15.3397 27.9888 15.2599 27.9688L10.0512 26.6663C9.92938 26.6362 9.81441 26.5832 9.71245 26.51L6.41869 24.1575C6.21617 23.9985 6.08279 23.7675 6.04633 23.5126C6.00986 23.2577 6.07312 22.9986 6.22294 22.7892C6.37275 22.5797 6.59757 22.4362 6.85058 22.3884C7.1036 22.3406 7.3653 22.3922 7.5812 22.5325L10.7199 24.775L15.7499 26.03C16.0072 26.0944 16.2283 26.2583 16.3648 26.4856C16.5012 26.713 16.5417 26.9853 16.4774 27.2425L16.4724 27.2413Z" fill="#707070"/>
</svg>
