<svg width="32" height="32" viewBox="0 0 32 32" fill="none" xmlns="http://www.w3.org/2000/svg">
<path d="M15.9988 11.3349C16.7723 11.3349 17.5141 11.6422 18.061 12.1891C18.608 12.7361 18.9152 13.4779 18.9152 14.2513C18.9152 15.0248 18.608 15.7666 18.061 16.3136C17.5141 16.8605 16.7723 17.1678 15.9988 17.1678C15.2253 17.1678 14.4835 16.8605 13.9366 16.3136C13.3896 15.7666 13.0824 15.0248 13.0824 14.2513C13.0824 13.4779 13.3896 12.7361 13.9366 12.1891C14.4835 11.6422 15.2253 11.3349 15.9988 11.3349ZM2 26.5003V30H7.83283V23.0006H5.4997C4.57152 23.0006 3.68136 23.3693 3.02504 24.0256C2.36872 24.682 2 25.5721 2 26.5003ZM15.2324 4.60034C15.4509 4.42853 15.7208 4.33513 15.9988 4.33513C16.2768 4.33513 16.5467 4.42853 16.7652 4.60034L28.5336 13.8104L29.9708 11.973L18.2036 2.76183C17.5749 2.26827 16.7987 2 15.9994 2C15.2001 2 14.4239 2.26827 13.7952 2.76183L2.02566 11.9719L3.46287 13.8092L15.2324 4.60034ZM27.6645 17.751C27.6645 16.9776 27.3572 16.2358 26.8103 15.6888C26.2633 15.1419 25.5215 14.8346 24.7481 14.8346C23.9746 14.8346 23.2328 15.1419 22.6858 15.6888C22.1389 16.2358 21.8316 16.9776 21.8316 17.751C21.8316 18.5245 22.1389 19.2663 22.6858 19.8133C23.2328 20.3602 23.9746 20.6675 24.7481 20.6675C25.5215 20.6675 26.2633 20.3602 26.8103 19.8133C27.3572 19.2663 27.6645 18.5245 27.6645 17.751ZM26.4979 23.0006H24.1648V30H29.9976V26.5003C29.9976 25.5721 29.6289 24.682 28.9726 24.0256C28.3162 23.3693 27.4261 23.0006 26.4979 23.0006ZM18.3319 19.5009H13.6657C11.7362 19.5009 10.166 21.0711 10.166 23.0006V30H21.8316V23.0006C21.8316 21.0711 20.2614 19.5009 18.3319 19.5009ZM7.24955 14.8346C6.47607 14.8346 5.73427 15.1419 5.18733 15.6888C4.6404 16.2358 4.33313 16.9776 4.33313 17.751C4.33313 18.5245 4.6404 19.2663 5.18733 19.8133C5.73427 20.3602 6.47607 20.6675 7.24955 20.6675C8.02303 20.6675 8.76484 20.3602 9.31177 19.8133C9.8587 19.2663 10.166 18.5245 10.166 17.751C10.166 16.9776 9.8587 16.2358 9.31177 15.6888C8.76484 15.1419 8.02303 14.8346 7.24955 14.8346Z" fill="#707070"/>
</svg>
