<svg width="32" height="32" viewBox="0 0 32 32" fill="none" xmlns="http://www.w3.org/2000/svg">
<path d="M10 14.8397C10 18.0577 12.6168 20.6759 15.8333 20.6759C19.0498 20.6759 21.6667 18.0577 21.6667 14.8397C21.6667 14.5301 21.7896 14.2332 22.0084 14.0143C22.2272 13.7954 22.5239 13.6724 22.8333 13.6724C23.1428 13.6724 23.4395 13.7954 23.6583 14.0143C23.8771 14.2332 24 14.5301 24 14.8397C24 19.3452 20.3367 23.0103 15.8333 23.0103C11.33 23.0103 7.66667 19.3452 7.66667 14.8397C7.66667 10.3341 11.33 6.66897 15.8333 6.66897C16.1428 6.66897 16.4395 6.79194 16.6583 7.01084C16.8771 7.22974 17 7.52663 17 7.83621C17 8.14578 16.8771 8.44267 16.6583 8.66157C16.4395 8.88047 16.1428 9.00345 15.8333 9.00345C12.6168 9.00345 10 11.6216 10 14.8397ZM15.8333 16.0069C15.6026 16.0068 15.3771 15.9384 15.1853 15.8101C14.9935 15.6818 14.844 15.4996 14.7557 15.2863C14.6674 15.073 14.6443 14.8384 14.6893 14.612C14.7343 14.3856 14.8454 14.1777 15.0085 14.0144L17.3208 11.7009C16.0235 11.1162 14.3925 11.3286 13.3577 12.3639C12.6973 13.0246 12.3333 13.9047 12.3333 14.8397C12.3333 15.7746 12.6973 16.6547 13.3577 17.3154C14.018 17.976 14.8977 18.3414 15.8333 18.3414C16.769 18.3414 17.6475 17.9772 18.3078 17.3165C18.9682 16.6559 19.3333 15.7758 19.3333 14.8397C19.3333 14.3097 19.205 13.8031 18.9833 13.3386L16.6593 15.6637C16.5511 15.7723 16.4226 15.8584 16.281 15.9171C16.1395 15.9758 15.9877 16.0059 15.8345 16.0057L15.8333 16.0069ZM17.3208 11.7009C17.6813 11.8632 18.0208 12.0756 18.3078 12.3628C18.5948 12.6499 18.813 12.9826 18.9822 13.3374L20.9818 11.3368H23.9988C24.308 11.3368 24.6055 11.2142 24.8237 10.9948L27.157 8.66028C27.3201 8.49704 27.4312 8.28908 27.4762 8.06269C27.5212 7.8363 27.4981 7.60164 27.4098 7.38839C27.3215 7.17513 27.172 6.99285 26.9802 6.86459C26.7884 6.73633 26.5629 6.66785 26.3322 6.6678H23.9988V4.33448C23.9977 4.10416 23.9286 3.8793 23.8002 3.68811C23.6718 3.49692 23.4899 3.34791 23.2772 3.25977C23.0645 3.17164 22.8305 3.14829 22.6046 3.19267C22.3787 3.23706 22.1709 3.34718 22.0073 3.50924L19.674 5.84373C19.4552 6.06258 19.3322 6.35942 19.3322 6.66897V9.68745L17.3208 11.7009ZM24.3442 24.4227C26.989 22.0695 28.6667 18.6507 28.6667 14.8397C28.6667 14.4066 28.6457 13.9794 28.6037 13.5569C28.5885 13.4043 28.5435 13.2563 28.4711 13.1212C28.3988 12.9861 28.3005 12.8666 28.182 12.7695C28.0635 12.6723 27.927 12.5995 27.7804 12.5552C27.6337 12.5108 27.4798 12.4958 27.3273 12.511C27.1749 12.5262 27.0269 12.5712 26.8919 12.6436C26.7569 12.716 26.6374 12.8143 26.5403 12.9329C26.4433 13.0515 26.3705 13.188 26.3262 13.3347C26.2818 13.4814 26.2668 13.6355 26.282 13.788C26.3158 14.1335 26.3333 14.4848 26.3333 14.8397C26.3333 20.6315 21.6223 25.3448 15.8333 25.3448C10.0443 25.3448 5.33333 20.6315 5.33333 14.8397C5.33333 9.0478 10.0443 4.33448 15.8333 4.33448C16.188 4.33448 16.538 4.35199 16.8845 4.38584C17.038 4.40317 17.1935 4.38982 17.3418 4.34657C17.4901 4.30331 17.6284 4.231 17.7486 4.13385C17.8687 4.03669 17.9684 3.91662 18.0419 3.78061C18.1153 3.6446 18.161 3.49535 18.1762 3.34153C18.1915 3.18771 18.1762 3.03238 18.131 2.88456C18.0858 2.73674 18.0117 2.59937 17.913 2.48043C17.8143 2.36149 17.693 2.26334 17.5561 2.19169C17.4192 2.12004 17.2694 2.07631 17.1155 2.06303C16.6894 2.02085 16.2615 1.99981 15.8333 2C8.7575 2 3 7.76033 3 14.8397C3 18.6507 4.67767 22.0695 7.3225 24.4227L4.92967 28.2244C4.76987 28.4862 4.7195 28.8004 4.78945 29.0991C4.8594 29.3977 5.04405 29.6568 5.30346 29.8203C5.56286 29.9839 5.87618 30.0386 6.17564 29.9728C6.4751 29.907 6.73663 29.7259 6.90367 29.4687L9.20433 25.8129C11.1422 26.9895 13.4055 27.6793 15.8333 27.6793C18.2612 27.6793 20.5245 26.9895 22.4623 25.8129L24.763 29.4687C24.93 29.7259 25.1916 29.907 25.491 29.9728C25.7905 30.0386 26.1038 29.9839 26.3632 29.8203C26.6226 29.6568 26.8073 29.3977 26.8772 29.0991C26.9472 28.8004 26.8968 28.4862 26.737 28.2244L24.3442 24.4227Z" fill="#707070"/>
</svg>
