<svg width="32" height="32" viewBox="0 0 32 32" fill="none" xmlns="http://www.w3.org/2000/svg">
<path d="M13.0838 4.91642C13.0838 4.14294 13.3911 3.40113 13.9381 2.8542C14.4851 2.30726 15.227 2 16.0006 2C16.7741 2 17.516 2.30726 18.063 2.8542C18.61 3.40113 18.9173 4.14294 18.9173 4.91642C18.9173 5.6899 18.61 6.4317 18.063 6.97864C17.516 7.52557 16.7741 7.83284 16.0006 7.83284C15.227 7.83284 14.4851 7.52557 13.9381 6.97864C13.3911 6.4317 13.0838 5.6899 13.0838 4.91642ZM26.501 5.4997C24.5712 5.4997 23.0008 7.0699 23.0008 8.99941V15.0469C22.689 14.9309 22.3621 14.8602 22.0301 14.8369C21.5693 14.8119 21.108 14.8783 20.6729 15.0323C20.2378 15.1862 19.8374 15.4247 19.4949 15.734L15.9842 18.9642C15.8874 18.8662 15.7976 18.7636 15.6961 18.6691L12.4946 15.7235C11.8037 15.106 10.8963 14.7872 9.97099 14.8369C9.63264 14.8556 9.31063 14.9372 9.00028 15.0469V8.99941C9.00028 7.0699 7.42989 5.4997 5.50014 5.4997C3.5704 5.4997 2 7.0699 2 8.99941V20.7829C2 23.2759 2.97071 25.6195 4.73361 27.3822L7.0087 29.657C7.1168 29.7657 7.24533 29.852 7.38689 29.9108C7.52845 29.9697 7.68025 30 7.83357 30C7.98688 30 8.13869 29.9697 8.28025 29.9108C8.42181 29.852 8.55033 29.7657 8.65843 29.657C8.76688 29.5487 8.85291 29.4202 8.91161 29.2787C8.9703 29.1371 9.00052 28.9854 9.00052 28.8322C9.00052 28.679 8.9703 28.5273 8.91161 28.3858C8.85291 28.2443 8.76688 28.1157 8.65843 28.0075L6.38334 25.7327C5.73131 25.0841 5.2144 24.3127 4.86253 23.4631C4.51066 22.6135 4.33082 21.7025 4.33343 20.7829V8.99941C4.34687 8.69904 4.47566 8.41543 4.69299 8.20763C4.91032 7.99983 5.19944 7.88386 5.50014 7.88386C5.80085 7.88386 6.08996 7.99983 6.30729 8.20763C6.52462 8.41543 6.65342 8.69904 6.66685 8.99941C6.66685 8.99941 6.66102 18.4206 6.66685 18.4673C6.70186 19.2314 6.99937 19.9943 7.53722 20.6336L10.5893 23.8078C10.8039 24.0307 11.0983 24.1593 11.4077 24.1652C11.7171 24.1711 12.0161 24.0539 12.2391 23.8393C12.462 23.6248 12.5906 23.3304 12.5965 23.0211C12.6024 22.7117 12.4852 22.4127 12.2706 22.1898L9.27096 19.0751C9.09241 18.8602 8.99681 18.5884 9.00152 18.3091C9.00623 18.0298 9.11093 17.7614 9.29663 17.5527C9.39817 17.4387 9.52128 17.3461 9.65886 17.28C9.79644 17.2139 9.94575 17.1757 10.0982 17.1677C10.2482 17.1579 10.3987 17.1781 10.5409 17.2269C10.6831 17.2758 10.8142 17.3524 10.9265 17.4524L14.1152 20.3874C14.7083 20.9344 15.1819 21.5982 15.5062 22.337C15.8304 23.0757 15.9984 23.8736 15.9994 24.6804V28.8322C15.9994 29.1416 16.1223 29.4383 16.3411 29.6571C16.5599 29.8759 16.8567 29.9988 17.1661 29.9988C17.4755 29.9988 17.7723 29.8759 17.9911 29.6571C18.2099 29.4383 18.3328 29.1416 18.3328 28.8322V24.6804C18.3288 23.3472 17.9987 22.0352 17.3715 20.8587L21.0618 17.4629C21.1748 17.3598 21.3074 17.2805 21.4517 17.2298C21.5961 17.1791 21.7491 17.158 21.9018 17.1677C22.0542 17.1757 22.2035 17.2139 22.3411 17.28C22.4787 17.3461 22.6018 17.4387 22.7033 17.5527C22.89 17.7603 23.2179 18.5793 22.7815 19.0156L19.8262 22.0883C19.6208 22.3129 19.5113 22.6088 19.521 22.9129C19.5308 23.2171 19.659 23.5054 19.8784 23.7164C20.0977 23.9274 20.3908 24.0442 20.6952 24.0422C20.9995 24.0401 21.291 23.9191 21.5075 23.7052L24.5152 20.5729C25.0403 19.9476 25.3156 19.1789 25.3331 18.4066C25.3354 18.3798 25.3331 8.99824 25.3331 8.99824C25.3465 8.69787 25.4753 8.41426 25.6927 8.20646C25.91 7.99866 26.1991 7.88269 26.4998 7.88269C26.8005 7.88269 27.0896 7.99866 27.307 8.20646C27.5243 8.41426 27.6531 8.69787 27.6665 8.99824V20.7817C27.669 21.7013 27.4891 22.6122 27.1373 23.4618C26.7854 24.3115 26.2686 25.0829 25.6166 25.7315L23.3415 28.0063C23.2332 28.1146 23.1473 28.2432 23.0887 28.3847C23.03 28.5262 22.9999 28.6779 22.9999 28.8311C22.9999 28.9842 23.03 29.1359 23.0887 29.2774C23.1473 29.4189 23.2332 29.5475 23.3415 29.6558C23.4499 29.7641 23.5785 29.85 23.72 29.9087C23.8615 29.9673 24.0132 29.9975 24.1664 29.9975C24.3196 29.9975 24.4713 29.9673 24.6128 29.9087C24.7543 29.85 24.8829 29.7641 24.9913 29.6558L27.2664 27.381C28.1358 26.5164 28.825 25.4879 29.2942 24.3552C29.7635 23.2224 30.0033 22.0078 30 20.7817V8.99941C30 7.0699 28.4307 5.4997 26.501 5.4997ZM14.051 13.9853L15.059 14.9127C15.591 15.4027 16.4101 15.4027 16.9421 14.9127L17.9151 14.018C18.69 13.3333 19.6303 12.8628 20.6429 12.6531L20.6581 12.6298C20.1762 10.5509 18.2745 8.99941 16.0017 8.99941C13.729 8.99941 11.8284 10.5498 11.3454 12.6274L11.3594 12.6496C12.3592 12.8485 13.2884 13.309 14.0522 13.9841L14.051 13.9853Z" fill="#707070"/>
</svg>
