<svg width="32" height="32" viewBox="0 0 32 32" fill="none" xmlns="http://www.w3.org/2000/svg">
<g clip-path="url(#clip0_219_1934)">
<path d="M15.9272 32L15.4316 31.7907C14.88 31.56 2 26.02 2 15.988V7.28933C2.00049 6.45223 2.2783 5.63661 2.79386 4.95863C3.30942 4.28065 4.03644 3.77488 4.8714 3.51333L16 0L27.1286 3.51333C27.9636 3.77488 28.6906 4.28065 29.2061 4.95863C29.7217 5.63661 29.9995 6.45223 30 7.28933V15.988C30 27.424 16.9968 31.6613 16.4424 31.8373L15.9272 32ZM16 2.796L5.7576 6.03067C5.47892 6.11736 5.2362 6.28581 5.06419 6.5119C4.89217 6.73799 4.7997 7.01013 4.8 7.28933V15.988C4.8 23.3133 13.816 28.0653 16.0658 29.136C18.3114 28.276 27.2 24.3387 27.2 15.988V7.28933C27.2003 7.01013 27.1078 6.73799 26.9358 6.5119C26.7638 6.28581 26.5211 6.11736 26.2424 6.03067L16 2.796Z" fill="#707070"/>
<path d="M14.7554 19.3773H14.7092C14.3548 19.3722 14.0053 19.2986 13.6816 19.1611C13.358 19.0236 13.067 18.825 12.8262 18.5773L9.5978 15.3773L11.6152 13.5347L14.7568 16.6547L22.0102 9.74667L23.9898 11.632L16.6244 18.6467C16.3791 18.8801 16.0876 19.0649 15.7668 19.1903C15.4459 19.3157 15.1022 19.3793 14.7554 19.3773Z" fill="#707070"/>
</g>
<defs>
<clipPath id="clip0_219_1934">
<rect width="32" height="32" fill="white"/>
</clipPath>
</defs>
</svg>
