<svg width="32" height="32" viewBox="0 0 32 32" fill="none" xmlns="http://www.w3.org/2000/svg">
<path d="M18.3333 18.3333C18.3333 17.689 18.8557 17.1667 19.5 17.1667C20.1443 17.1667 20.6667 17.689 20.6667 18.3333C20.6667 18.9777 20.1443 19.5 19.5 19.5C18.8557 19.5 18.3333 18.9777 18.3333 18.3333ZM23 18.3333C23 18.9777 23.5223 19.5 24.1667 19.5C24.811 19.5 25.3333 18.9777 25.3333 18.3333C25.3333 17.689 24.811 17.1667 24.1667 17.1667C23.5223 17.1667 23 17.689 23 18.3333ZM18.3333 23C18.3333 23.6443 18.8557 24.1667 19.5 24.1667C20.1443 24.1667 20.6667 23.6443 20.6667 23C20.6667 22.3557 20.1443 21.8333 19.5 21.8333C18.8557 21.8333 18.3333 22.3557 18.3333 23ZM23 23C23 23.6443 23.5223 24.1667 24.1667 24.1667C24.811 24.1667 25.3333 23.6443 25.3333 23C25.3333 22.3557 24.811 21.8333 24.1667 21.8333C23.5223 21.8333 23 22.3557 23 23ZM18.3333 9C18.3333 9.64433 18.8557 10.1667 19.5 10.1667C20.1443 10.1667 20.6667 9.64433 20.6667 9C20.6667 8.35567 20.1443 7.83333 19.5 7.83333C18.8557 7.83333 18.3333 8.35567 18.3333 9ZM23 9C23 9.64433 23.5223 10.1667 24.1667 10.1667C24.811 10.1667 25.3333 9.64433 25.3333 9C25.3333 8.35567 24.811 7.83333 24.1667 7.83333C23.5223 7.83333 23 8.35567 23 9ZM18.3333 13.6667C18.3333 14.311 18.8557 14.8333 19.5 14.8333C20.1443 14.8333 20.6667 14.311 20.6667 13.6667C20.6667 13.0223 20.1443 12.5 19.5 12.5C18.8557 12.5 18.3333 13.0223 18.3333 13.6667ZM23 13.6667C23 14.311 23.5223 14.8333 24.1667 14.8333C24.811 14.8333 25.3333 14.311 25.3333 13.6667C25.3333 13.0223 24.811 12.5 24.1667 12.5C23.5223 12.5 23 13.0223 23 13.6667ZM30 5.5V30H2V12.3005C2 11.366 2.364 10.4863 3.0255 9.82483L6.18367 6.66667C7.6875 5.16167 10.3125 5.16167 11.8163 6.66667L13.6667 8.517V5.5C13.6667 3.57033 15.237 2 17.1667 2H26.5C28.4297 2 30 3.57033 30 5.5ZM13.6667 12.3005C13.667 12.1471 13.637 11.9951 13.5784 11.8533C13.5197 11.7115 13.4335 11.5828 13.3248 11.4745L10.1667 8.31633C9.553 7.70267 8.447 7.70267 7.83333 8.31633L4.67517 11.4745C4.56637 11.5827 4.48014 11.7114 4.42146 11.8532C4.36278 11.995 4.33283 12.1471 4.33333 12.3005V27.6667H13.6667V12.3005ZM27.6667 5.5C27.6667 4.85717 27.1428 4.33333 26.5 4.33333H17.1667C16.5238 4.33333 16 4.85717 16 5.5V27.6667H27.6667V5.5ZM7.83333 18.3333C7.83333 18.9777 8.35567 19.5 9 19.5C9.64433 19.5 10.1667 18.9777 10.1667 18.3333C10.1667 17.689 9.64433 17.1667 9 17.1667C8.35567 17.1667 7.83333 17.689 7.83333 18.3333ZM7.83333 13.6667C7.83333 14.311 8.35567 14.8333 9 14.8333C9.64433 14.8333 10.1667 14.311 10.1667 13.6667C10.1667 13.0223 9.64433 12.5 9 12.5C8.35567 12.5 7.83333 13.0223 7.83333 13.6667ZM7.83333 23C7.83333 23.6443 8.35567 24.1667 9 24.1667C9.64433 24.1667 10.1667 23.6443 10.1667 23C10.1667 22.3557 9.64433 21.8333 9 21.8333C8.35567 21.8333 7.83333 22.3557 7.83333 23Z" fill="#707070"/>
</svg>
