<svg width="28" height="28" viewBox="0 0 28 28" fill="none" xmlns="http://www.w3.org/2000/svg">
<path d="M13.9363 28L13.5026 27.8168C13.02 27.615 1.75 22.7675 1.75 13.9895V6.37817C1.75043 5.6457 1.99351 4.93203 2.44462 4.3388C2.89574 3.74557 3.53189 3.30302 4.26248 3.07417L14 0L23.7375 3.07417C24.4681 3.30302 25.1043 3.74557 25.5554 4.3388C26.0065 4.93203 26.2496 5.6457 26.25 6.37817V13.9895C26.25 23.996 14.8722 27.7037 14.3871 27.8577L13.9363 28ZM14 2.4465L5.0379 5.27683C4.79406 5.35269 4.58167 5.50008 4.43116 5.69791C4.28065 5.89574 4.19973 6.13386 4.2 6.37817V13.9895C4.2 20.3992 12.089 24.5572 14.0576 25.494C16.0225 24.7415 23.8 21.2963 23.8 13.9895V6.37817C23.8003 6.13386 23.7193 5.89574 23.5688 5.69791C23.4183 5.50008 23.2059 5.35269 22.9621 5.27683L14 2.4465Z" fill="#707070"/>
<path d="M12.911 16.9552H12.8705C12.5605 16.9506 12.2546 16.8863 11.9714 16.766C11.6882 16.6456 11.4336 16.4719 11.2229 16.2552L8.39807 13.4552L10.1633 11.8428L12.9122 14.5728L19.2589 8.52833L20.9911 10.178L14.5463 16.3158C14.3317 16.5201 14.0766 16.6818 13.7959 16.7915C13.5152 16.9013 13.2144 16.9569 12.911 16.9552Z" fill="#707070"/>
</svg>
