<svg width="28" height="28" viewBox="0 0 28 28" fill="none" xmlns="http://www.w3.org/2000/svg">
<path d="M21.3828 10.5137H10.5118V6.29778C10.5118 4.43844 12.0758 2.92578 13.9981 2.92578C15.9205 2.92578 17.4844 4.43844 17.4844 6.29778V8.25781H19.5352V6.29778C19.5352 3.30764 17.0513 0.875 13.9981 0.875C10.945 0.875 8.46099 3.30764 8.46099 6.29778V10.5137H6.61719C4.92099 10.5137 3.54102 11.8936 3.54102 13.5898V24.0488C3.54102 25.745 4.92099 27.125 6.61719 27.125H21.3828C23.079 27.125 24.459 25.745 24.459 24.0488V13.5898C24.459 11.8936 23.079 10.5137 21.3828 10.5137ZM22.4082 24.0488C22.4082 24.6142 21.9482 25.0742 21.3828 25.0742H6.61719C6.05179 25.0742 5.5918 24.6142 5.5918 24.0488V13.5898C5.5918 13.0244 6.05179 12.5645 6.61719 12.5645H21.3828C21.9482 12.5645 22.4082 13.0244 22.4082 13.5898V24.0488Z" fill="#707070"/>
<path d="M14 15.5381C12.9523 15.5381 12.103 16.3874 12.103 17.4351C12.103 18.104 12.4496 18.6917 12.9727 19.0294V21.2803C12.9727 21.8465 13.4318 22.3057 13.9981 22.3057C14.5644 22.3057 15.0235 21.8465 15.0235 21.2803V19.0318C15.5487 18.6945 15.897 18.1057 15.897 17.4351C15.897 16.3874 15.0477 15.5381 14 15.5381Z" fill="#707070"/>
</svg>
