<svg width="28" height="28" viewBox="0 0 28 28" fill="none" xmlns="http://www.w3.org/2000/svg">
<path d="M11.4483 4.30187C11.4483 3.62507 11.7172 2.97599 12.1958 2.49742C12.6745 2.01886 13.3236 1.75 14.0005 1.75C14.6774 1.75 15.3265 2.01886 15.8052 2.49742C16.2838 2.97599 16.5527 3.62507 16.5527 4.30187C16.5527 4.97866 16.2838 5.62774 15.8052 6.10631C15.3265 6.58488 14.6774 6.85373 14.0005 6.85373C13.3236 6.85373 12.6745 6.58488 12.1958 6.10631C11.7172 5.62774 11.4483 4.97866 11.4483 4.30187ZM23.1884 4.81224C21.4998 4.81224 20.1257 6.18617 20.1257 7.87448V13.166C19.8528 13.0645 19.5668 13.0027 19.2764 12.9823C18.8731 12.9604 18.4695 13.0185 18.0888 13.1532C17.7081 13.288 17.3578 13.4966 17.058 13.7673L13.9862 16.5937C13.9015 16.508 13.8229 16.4181 13.734 16.3355L10.9328 13.7581C10.3282 13.2178 9.53429 12.9388 8.72461 12.9823C8.42856 12.9986 8.1468 13.0701 7.87525 13.166V7.87448C7.87525 6.18617 6.50115 4.81224 4.81262 4.81224C3.1241 4.81224 1.75 6.18617 1.75 7.87448V18.185C1.75 20.3664 2.59937 22.4171 4.14191 23.9594L6.13261 25.9499C6.2272 26.045 6.33966 26.1205 6.46353 26.172C6.58739 26.2235 6.72022 26.25 6.85437 26.25C6.98852 26.25 7.12135 26.2235 7.24522 26.172C7.36908 26.1205 7.48154 26.045 7.57613 25.9499C7.67102 25.8552 7.74629 25.7427 7.79765 25.6188C7.84902 25.495 7.87545 25.3623 7.87545 25.2282C7.87545 25.0941 7.84902 24.9614 7.79765 24.8376C7.74629 24.7137 7.67102 24.6012 7.57613 24.5065L5.58543 22.5161C5.0149 21.9486 4.5626 21.2736 4.25471 20.5302C3.94683 19.7868 3.78947 18.9897 3.79175 18.185V7.87448C3.80351 7.61166 3.9162 7.3635 4.10636 7.18168C4.29653 6.99985 4.54951 6.89837 4.81262 6.89837C5.07574 6.89837 5.32872 6.99985 5.51888 7.18168C5.70905 7.3635 5.82174 7.61166 5.8335 7.87448C5.8335 7.87448 5.82839 16.118 5.8335 16.1589C5.86412 16.8275 6.12445 17.495 6.59507 18.0544L9.26568 20.8318C9.45344 21.0269 9.71102 21.1394 9.98173 21.1445C10.2524 21.1497 10.5141 21.0471 10.7092 20.8594C10.9043 20.6717 11.0168 20.4141 11.0219 20.1434C11.0271 19.8728 10.9245 19.6111 10.7368 19.4161L8.11209 16.6907C7.95586 16.5027 7.87221 16.2649 7.87633 16.0205C7.88045 15.7761 7.97207 15.5412 8.13455 15.3586C8.2234 15.2589 8.33112 15.1778 8.4515 15.12C8.57188 15.0622 8.70253 15.0288 8.83589 15.0218C8.96718 15.0132 9.09887 15.0308 9.22329 15.0736C9.34772 15.1163 9.46241 15.1834 9.56071 15.2708L12.3508 17.839C12.8698 18.3176 13.2842 18.8984 13.5679 19.5448C13.8516 20.1913 13.9986 20.8894 13.9995 21.5954V25.2282C13.9995 25.4989 14.107 25.7585 14.2985 25.95C14.4899 26.1414 14.7496 26.2489 15.0203 26.2489C15.2911 26.2489 15.5508 26.1414 15.7422 25.95C15.9337 25.7585 16.0412 25.4989 16.0412 25.2282V21.5954C16.0377 20.4288 15.7489 19.2808 15.2 18.2514L18.429 15.28C18.5279 15.1898 18.644 15.1204 18.7703 15.0761C18.8966 15.0317 19.0305 15.0132 19.1641 15.0218C19.2974 15.0288 19.4281 15.0622 19.5485 15.12C19.6688 15.1778 19.7766 15.2589 19.8654 15.3586C20.0288 15.5403 20.3156 16.2569 19.9338 16.6386L17.3479 19.3273C17.1682 19.5238 17.0724 19.7827 17.0809 20.0488C17.0894 20.315 17.2016 20.5673 17.3936 20.7518C17.5855 20.9364 17.842 21.0387 18.1083 21.0369C18.3746 21.035 18.6296 20.9292 18.819 20.742L21.4508 18.0013C21.9102 17.4542 22.1512 16.7815 22.1665 16.1058C22.1685 16.0823 22.1665 7.87346 22.1665 7.87346C22.1782 7.61064 22.2909 7.36248 22.4811 7.18066C22.6712 6.99883 22.9242 6.89735 23.1873 6.89735C23.4505 6.89735 23.7034 6.99883 23.8936 7.18066C24.0838 7.36248 24.1965 7.61064 24.2082 7.87346V18.184C24.2104 18.9886 24.053 19.7857 23.7451 20.5291C23.4372 21.2725 22.985 21.9475 22.4145 22.5151L20.4238 24.5055C20.3291 24.6003 20.2539 24.7128 20.2026 24.8366C20.1513 24.9604 20.1249 25.0932 20.1249 25.2272C20.1249 25.3612 20.1513 25.4939 20.2026 25.6177C20.2539 25.7416 20.3291 25.8541 20.4238 25.9488C20.5186 26.0436 20.6311 26.1188 20.755 26.1701C20.8788 26.2214 21.0116 26.2478 21.1456 26.2478C21.2796 26.2478 21.4124 26.2214 21.5362 26.1701C21.66 26.1188 21.7726 26.0436 21.8674 25.9488L23.8581 23.9584C24.6188 23.2018 25.2219 22.3019 25.6325 21.3108C26.043 20.3196 26.2529 19.2568 26.25 18.184V7.87448C26.25 6.18617 24.8769 4.81224 23.1884 4.81224ZM12.2946 12.2372L13.1766 13.0486C13.6422 13.4774 14.3588 13.4774 14.8243 13.0486L15.6757 12.2657C16.3538 11.6666 17.1765 11.255 18.0626 11.0715L18.0758 11.051C17.6542 9.23208 15.9902 7.87448 14.0015 7.87448C12.0129 7.87448 10.3498 9.23105 9.92721 11.049L9.93946 11.0684C10.8143 11.2424 11.6273 11.6454 12.2956 12.2361L12.2946 12.2372Z" fill="#707070"/>
</svg>
